<svg width="32" height="32" viewBox="0 0 32 32" fill="none" xmlns="http://www.w3.org/2000/svg">
<path fill-rule="evenodd" clip-rule="evenodd" d="M13.637 3.21704C12.4261 2.1356 10.8149 1.92129 9.05406 2.20649C7.282 2.50158 5.57425 2.90382 4.30551 3.78907C3.03194 4.6529 2.26169 6.22724 2.18289 8.25658C2.10088 10.2991 2.6846 12.2032 3.84239 13.4972C4.98893 14.8062 6.70953 15.5084 8.63114 15.4623C10.5528 15.4029 12.4133 14.3578 13.6788 13.0488C14.962 11.7053 15.6535 10.0963 15.6406 8.11481C15.6454 6.14976 14.8414 4.24901 13.637 3.21704Z" fill="white"/>
<path fill-rule="evenodd" clip-rule="evenodd" d="M29.1329 20.5978C27.6069 19.6384 25.9763 18.5636 24.4423 17.4574C23.3842 16.6842 22.1797 16.7024 21.3613 17.4772C20.1424 18.5866 19.028 19.6483 17.8959 20.6737C17.1353 21.3792 16.5934 22.464 16.8185 23.4943C17.1627 24.9978 17.7303 26.6595 18.1822 28.4976C18.4989 29.7669 19.4396 30.606 20.5733 30.4115C22.2344 30.156 23.8746 29.9417 25.629 30.2796C26.8382 30.5319 27.9398 30.0142 28.308 28.6492C28.8531 26.7122 29.4915 24.9269 30.1444 23.3707C30.593 22.2925 30.1894 21.2589 29.1345 20.5978H29.1329Z" fill="white"/>
<path fill-rule="evenodd" clip-rule="evenodd" d="M30.0607 12.795C29.0106 11.2272 28.1181 9.64465 27.245 7.96645C26.3638 6.29979 25.5019 4.53587 24.3473 2.85602C23.5593 1.72843 21.9304 1.69875 21.3933 2.86261C20.5555 4.60016 19.6116 6.41519 18.7191 8.11976C17.809 9.83258 16.9503 11.4349 15.9099 12.9318C15.183 13.9209 16.1141 15.5381 17.5597 15.6799C21.7696 16.0871 25.1256 15.3387 28.7115 15.2645C29.3065 15.2562 29.7921 14.9348 30.0703 14.4501C30.3453 13.9704 30.4112 13.3275 30.0623 12.795H30.0607Z" fill="white"/>
<path fill-rule="evenodd" clip-rule="evenodd" d="M15.6619 23.6844V23.6548C15.5992 22.8865 15.194 22.2057 14.6296 21.6782C14.0619 21.1589 13.3367 20.7913 12.5552 20.844C12.3075 20.8589 12.0615 20.8753 11.8139 20.8918C11.8074 20.5868 11.801 20.2802 11.7946 19.9719C11.756 18.0201 10.4117 16.3831 8.7779 16.6254L8.74734 16.6304C7.13608 16.8793 5.87216 18.7257 5.92844 20.4879C5.9397 20.7715 5.94935 21.0517 5.959 21.3287C5.68724 21.3468 5.41548 21.3649 5.13729 21.3814C3.38452 21.5117 1.81507 22.8585 2.01768 24.3916L2.0209 24.4213C2.11577 25.1945 2.58532 25.8885 3.20281 26.4061C3.82512 26.9238 4.59698 27.265 5.41065 27.3046C5.66794 27.3161 5.92362 27.3293 6.17769 27.3425C6.19055 27.5914 6.20342 27.8404 6.21789 28.086C6.2999 29.6686 7.73749 30.9264 9.34714 30.8127H9.3777C10.9697 30.717 12.1082 29.5433 12.0229 28.0398C12.0085 27.8024 11.994 27.5585 11.9811 27.3112C12.2384 27.2799 12.4973 27.2452 12.7578 27.2024C14.4012 26.9205 15.789 25.1928 15.6635 23.6828L15.6619 23.6844Z" fill="white"/>
</svg>
