<svg width="20" height="20" viewBox="0 0 20 20" fill="none" xmlns="http://www.w3.org/2000/svg">
<path d="M7.49967 9.16634C8.42015 9.16634 9.16634 8.42015 9.16634 7.49967C9.16634 6.5792 8.42015 5.83301 7.49967 5.83301C6.5792 5.83301 5.83301 6.5792 5.83301 7.49967C5.83301 8.42015 6.5792 9.16634 7.49967 9.16634Z" stroke="#91D8EB" stroke-width="1.25"/>
<path d="M10.8332 12.4997C10.8332 13.4205 10.8332 14.1663 7.49984 14.1663C4.1665 14.1663 4.1665 13.4205 4.1665 12.4997C4.1665 11.5788 5.65817 10.833 7.49984 10.833C9.3415 10.833 10.8332 11.5788 10.8332 12.4997Z" stroke="#91D8EB" stroke-width="1.25"/>
<path opacity="0.5" d="M1.6665 9.99967C1.6665 6.85717 1.6665 5.28551 2.64317 4.30967C3.619 3.33301 5.19067 3.33301 8.33317 3.33301H11.6665C14.809 3.33301 16.3807 3.33301 17.3565 4.30967C18.3332 5.28551 18.3332 6.85717 18.3332 9.99967C18.3332 13.1422 18.3332 14.7138 17.3565 15.6897C16.3807 16.6663 14.809 16.6663 11.6665 16.6663H8.33317C5.19067 16.6663 3.619 16.6663 2.64317 15.6897C1.6665 14.7138 1.6665 13.1422 1.6665 9.99967Z" stroke="#91D8EB" stroke-width="1.25"/>
<path d="M15.8332 10H12.4998M15.8332 7.5H11.6665" stroke="#91D8EB" stroke-width="1.25" stroke-linecap="round"/>
<path opacity="0.9" d="M15.833 12.5H13.333" stroke="#91D8EB" stroke-width="1.25" stroke-linecap="round"/>
</svg>
