<svg width="20" height="20" viewBox="0 0 20 20" fill="none" xmlns="http://www.w3.org/2000/svg">
<path opacity="0.5" d="M14.3277 11.4996L17.5594 14.7313C17.8718 15.0438 18.0473 15.4677 18.0473 15.9096C18.0473 16.3516 17.8718 16.7754 17.5594 17.088C17.2468 17.4004 16.823 17.5759 16.381 17.5759C15.9391 17.5759 15.5152 17.4004 15.2027 17.088L10.0285 11.9146M5.61103 4.91962L3.84186 5.50796L2.0752 2.56212L3.25353 1.38379L6.2002 3.15129L5.61103 4.91962ZM5.61103 4.91962L7.96936 7.27796" stroke="white" stroke-width="1.25" stroke-linecap="round" stroke-linejoin="round"/>
<path d="M8.3751 8.83832C7.67177 7.04415 7.80927 4.68998 9.25927 3.23998C10.7093 1.78998 13.3843 1.47248 14.8568 2.35665L12.3234 4.88998L12.0876 7.48248L14.6801 7.24748L17.2134 4.71332C18.0984 6.18665 17.7801 8.86165 16.3301 10.3108C14.8801 11.7608 12.5268 11.8983 10.7326 11.195" stroke="white" stroke-width="1.25" stroke-linecap="round" stroke-linejoin="round"/>
</svg>
