<svg width="20" height="20" viewBox="0 0 20 20" fill="none" xmlns="http://www.w3.org/2000/svg">
<path opacity="0.5" d="M17.4875 10.4333C17.5773 8.88179 17.1828 7.34069 16.3588 6.02306C15.5347 4.70543 14.3216 3.67634 12.8873 3.07804C11.453 2.47975 9.86819 2.34181 8.35206 2.68329C6.83593 3.02477 5.46331 3.8288 4.42397 4.98424C3.38463 6.13968 2.72989 7.58945 2.55027 9.13315C2.37065 10.6768 2.67501 12.2382 3.42128 13.6014C4.16755 14.9646 5.31888 16.0624 6.7161 16.7428C8.11332 17.4233 9.68742 17.6529 11.2208 17.4M10.4166 2.5C12.3441 5.58833 12.975 9.04666 12.3083 12.5M2.99995 7.5H16.9999M9.58338 2.5C8.1795 4.74967 7.43522 7.34822 7.43522 9.99999C7.43522 12.6518 8.1795 15.2503 9.58338 17.5M2.99995 12.5H12.0833" stroke="#91D8EB" stroke-width="1.25" stroke-linecap="round" stroke-linejoin="round"/>
<path d="M15.8332 12.5L14.1665 15H17.4998L15.8332 17.5" stroke="#91D8EB" stroke-width="1.25" stroke-linecap="round" stroke-linejoin="round"/>
</svg>
