<svg width="20" height="20" viewBox="0 0 20 20" fill="none" xmlns="http://www.w3.org/2000/svg">
<path opacity="0.5" d="M16.5 12.4375H3.5M2.6875 12.4375H17.3125V14.0625C17.3125 14.709 17.0557 15.329 16.5986 15.7861C16.1415 16.2432 15.5215 16.5 14.875 16.5H5.125C4.47853 16.5 3.85855 16.2432 3.40143 15.7861C2.94431 15.329 2.6875 14.709 2.6875 14.0625V12.4375Z" stroke="#91D8EB" stroke-width="1.25" stroke-linecap="round" stroke-linejoin="round"/>
<path d="M2.6875 12.4375H17.3125M12.4375 12.4375L15.1829 9.69206C15.343 9.53205 15.533 9.40513 15.7421 9.31856C15.9512 9.23199 16.1754 9.18745 16.4017 9.1875H16.5C16.931 9.1875 17.3443 9.35871 17.649 9.66345C17.9538 9.9682 18.125 10.3815 18.125 10.8125C18.125 11.2435 17.9538 11.6568 17.649 11.9615C17.3443 12.2663 16.931 12.4375 16.5 12.4375H3.5C3.06902 12.4375 2.6557 12.2663 2.35095 11.9615C2.0462 11.6568 1.875 11.2435 1.875 10.8125C1.875 10.3815 2.0462 9.9682 2.35095 9.66345C2.6557 9.35871 3.06902 9.1875 3.5 9.1875H7.16844C8.46115 9.18756 9.7009 9.70106 10.6151 10.6151L12.4375 12.4375Z" stroke="#91D8EB" stroke-width="1.25" stroke-linecap="round" stroke-linejoin="round"/>
<path opacity="0.5" d="M12.4384 5.9375H12.4375M10.0009 6.75H10M10 3.5C6.24386 3.5 3.14904 4.92675 2.73467 8.375C2.68104 8.82188 3.05154 9.1875 3.50004 9.1875H16.5C16.9485 9.1875 17.319 8.82188 17.2654 8.375C16.851 4.92675 13.7562 3.5 10 3.5Z" stroke="#91D8EB" stroke-width="1.25" stroke-linecap="round" stroke-linejoin="round"/>
</svg>
