<svg width="16" height="16" viewBox="0 0 16 16" fill="none" xmlns="http://www.w3.org/2000/svg">
<path d="M5.3335 10V6" stroke="white" stroke-width="1.25" stroke-linecap="round" stroke-linejoin="round"/>
<path d="M7.3335 8L3.3335 8" stroke="white" stroke-width="1.25" stroke-linecap="round" stroke-linejoin="round"/>
<path d="M13.8887 6H12.154C10.964 6 10 6.89533 10 8C10 9.10467 10.9647 10 12.1533 10H13.8887C13.9447 10 13.972 10 13.9953 9.99867C14.3553 9.97667 14.642 9.71067 14.6653 9.37667C14.6667 9.35533 14.6667 9.32933 14.6667 9.278V6.722C14.6667 6.67067 14.6667 6.64467 14.6653 6.62333C14.6413 6.28933 14.3553 6.02333 13.9953 6.00133C13.9727 6 13.9447 6 13.8887 6Z" stroke="white" stroke-width="1.25"/>
<path opacity="0.5" d="M13.9768 6.00033C13.9248 4.75233 13.7582 3.98699 13.2188 3.44833C12.4382 2.66699 11.1808 2.66699 8.66683 2.66699H6.66683C4.15283 2.66699 2.8955 2.66699 2.11483 3.44833C1.3335 4.22899 1.3335 5.48633 1.3335 8.00033C1.3335 10.5143 1.3335 11.7717 2.11483 12.5523C2.8955 13.3337 4.15283 13.3337 6.66683 13.3337H8.66683C11.1808 13.3337 12.4382 13.3337 13.2188 12.5523C13.7582 12.0137 13.9255 11.2483 13.9768 10.0003" stroke="white" stroke-width="1.25"/>
<path opacity="0.5" d="M11.9941 8H12.0001" stroke="white" stroke-width="1.25" stroke-linecap="round" stroke-linejoin="round"/>
</svg>
